<?xml version="1.0" standalone="no"?>
<!DOCTYPE svg PUBLIC "-//W3C//DTD SVG 20010904//EN"
 "http://www.w3.org/TR/2001/REC-SVG-20010904/DTD/svg10.dtd">
<svg version="1.0" xmlns="http://www.w3.org/2000/svg"
 width="500.000000pt" height="500.000000pt" viewBox="0 0 500.000000 500.000000"
 preserveAspectRatio="xMidYMid meet">

<g transform="translate(0.000000,500.000000) scale(0.100000,-0.100000)"
fill="#000000" stroke="none">
<path d="M0 2495 l0 -2495 2500 0 2500 0 0 2495 0 2495 -2500 0 -2500 0 0
-2495z m2818 306 c74 -183 120 -307 114 -313 -5 -5 -47 -8 -93 -6 -84 3 -84 3
-99 35 l-15 33 -128 0 -128 0 7 -35 6 -35 -88 0 c-49 0 -94 4 -100 8 -5 4 -37
69 -69 145 l-58 137 -44 0 -43 0 0 -140 c0 -119 -2 -140 -15 -140 -13 0 -15
31 -13 243 l3 242 187 0 188 0 27 -28 c22 -22 28 -37 28 -73 0 -37 -5 -50 -28
-69 -15 -13 -42 -27 -61 -30 l-34 -7 42 -94 c22 -51 45 -92 49 -91 5 2 57 121
115 265 59 144 111 260 116 259 5 -2 65 -140 134 -306z m-1948 -506 c17 -9 30
-20 30 -24 0 -5 3 -16 6 -25 3 -9 -5 -26 -20 -41 l-26 -26 30 -45 c28 -40 29
-44 11 -44 -12 0 -30 17 -48 45 -22 37 -33 45 -53 43 -22 -3 -25 -9 -28 -45
-2 -29 -8 -43 -18 -43 -11 0 -14 20 -14 103 0 57 3 107 7 110 12 13 94 7 123
-8z m288 -2 c3 -10 -12 -13 -53 -13 l-56 0 3 -32 c3 -32 5 -33 51 -36 63 -4
60 -22 -4 -22 l-50 0 3 -37 c3 -38 3 -38 53 -41 84 -5 77 -22 -8 -22 l-77 0 0
103 c0 57 3 107 7 111 12 12 126 2 131 -11z m230 11 c12 -4 22 -12 22 -20 0
-10 -12 -12 -50 -7 -41 5 -51 3 -56 -11 -9 -23 11 -40 64 -55 31 -9 46 -19 53
-39 23 -59 -31 -101 -109 -85 -52 10 -56 29 -5 25 62 -6 85 5 81 36 -2 22 -11
30 -48 42 -63 21 -70 27 -70 60 0 48 52 71 118 54z m172 -88 c5 -95 14 -108
65 -104 40 4 55 36 55 126 0 54 3 73 13 70 8 -3 13 -32 15 -84 2 -69 0 -84
-18 -107 -42 -54 -130 -44 -155 18 -15 35 -21 156 -8 169 18 18 28 -8 33 -88z
m326 44 c20 -27 37 -50 39 -50 2 0 16 20 32 45 28 45 47 60 64 49 5 -3 9 -52
9 -110 0 -84 -3 -104 -15 -104 -11 0 -15 19 -17 88 l-3 87 -30 -47 c-16 -27
-35 -48 -41 -48 -7 0 -26 21 -43 48 l-31 47 0 -87 c0 -72 -3 -88 -15 -88 -12
0 -15 19 -15 110 0 130 9 139 66 60z m391 33 c3 -8 -13 -13 -49 -15 -52 -3
-53 -4 -53 -33 0 -29 2 -30 48 -33 26 -2 47 -7 47 -12 0 -5 -21 -10 -47 -12
-48 -3 -48 -3 -48 -38 l0 -35 58 -3 c84 -4 70 -22 -18 -22 l-75 0 0 103 c0 57
3 107 7 111 12 12 126 2 130 -11z m274 7 c35 -19 20 -29 -35 -23 -49 5 -57 3
-80 -20 -35 -36 -35 -88 0 -124 23 -23 30 -25 81 -19 41 5 54 3 51 -6 -6 -17
-66 -31 -104 -23 -19 3 -44 19 -58 36 -47 56 -27 153 38 179 30 12 84 12 107
0z m269 -15 c27 -24 25 -59 -4 -83 -22 -17 -23 -22 -12 -38 49 -71 50 -74 30
-74 -12 0 -30 18 -47 45 -21 33 -35 45 -53 45 -22 0 -24 -4 -24 -45 0 -38 -3
-45 -20 -45 -19 0 -20 7 -20 103 0 57 3 107 8 111 14 15 120 1 142 -19z m257
-6 c6 -13 28 -61 47 -106 32 -76 34 -83 16 -83 -12 0 -23 12 -31 35 -12 33
-15 35 -61 35 -45 0 -49 -2 -62 -35 -8 -19 -22 -35 -30 -35 -9 0 -16 1 -16 3
0 9 83 194 92 205 15 17 31 11 45 -19z m321 14 c3 -10 -12 -13 -52 -13 l-56 0
0 -35 0 -35 50 0 c28 0 50 -4 50 -10 0 -5 -22 -10 -50 -10 l-50 0 0 -50 c0
-38 -4 -50 -15 -50 -12 0 -15 19 -15 110 l0 111 67 -3 c42 -2 68 -8 71 -15z
m260 0 c2 -9 -8 -13 -32 -13 l-36 0 0 -95 c0 -78 -3 -95 -15 -95 -12 0 -15 17
-15 95 l0 95 -35 0 c-33 0 -43 8 -28 24 13 12 156 2 161 -11z m399 -14 c6 -13
28 -61 47 -106 32 -76 34 -83 16 -83 -12 0 -23 12 -31 35 -12 33 -15 35 -61
35 -45 0 -49 -2 -62 -35 -8 -19 -22 -35 -30 -35 -9 0 -16 1 -16 3 0 9 83 194
92 205 15 17 31 11 45 -19z m211 -82 c2 -91 0 -107 -13 -107 -13 0 -15 18 -15
111 0 84 3 110 13 107 8 -3 13 -37 15 -111z"/>
<path d="M2662 2997 c-50 -112 -51 -97 19 -265 l63 -152 67 0 67 0 -94 226
c-51 125 -96 229 -98 231 -2 3 -13 -15 -24 -40z"/>
<path d="M2080 2875 l0 -75 165 0 c163 0 166 0 190 25 14 13 25 36 25 50 0 14
-11 37 -25 50 -24 25 -27 25 -190 25 l-165 0 0 -75z"/>
<path d="M2585 2809 c-8 -19 -33 -77 -54 -129 l-39 -95 105 -3 c58 -1 107 -1
109 1 3 3 -94 247 -102 256 -2 2 -10 -12 -19 -30z"/>
<path d="M2200 2767 c0 -1 24 -59 54 -128 l53 -124 58 -3 c32 -2 61 1 66 5 4
4 -16 62 -45 128 l-52 120 -67 3 c-37 2 -67 1 -67 -1z"/>
<path d="M2764 2535 c3 -9 6 -19 6 -21 0 -2 30 -4 66 -4 57 0 65 2 62 18 -3
14 -16 18 -72 20 -60 3 -68 1 -62 -13z"/>
<path d="M777 2274 c-4 -4 -7 -20 -7 -36 0 -27 2 -28 45 -28 49 0 67 18 48 49
-10 17 -73 27 -86 15z"/>
<path d="M2710 2245 c0 -34 1 -35 40 -35 44 0 65 22 49 52 -7 13 -22 18 -49
18 -39 0 -40 -1 -40 -35z"/>
<path d="M3027 2222 l-15 -37 30 -3 c39 -4 43 1 28 38 -18 44 -26 44 -43 2z"/>
<path d="M4007 2222 l-15 -37 30 -3 c39 -4 43 1 28 38 -18 44 -26 44 -43 2z"/>
</g>
</svg>
